<?xml version="1.0" encoding="UTF-8"?>
<svg id="Layer_1" data-name="Layer 1" xmlns="http://www.w3.org/2000/svg" viewBox="0 0 200 90">
  <defs>
    <style>
      .cls-1 {
        fill: #eed4b9;
      }
    </style>
  </defs>
  <path class="cls-1" d="M60.82,16.73c-4.13,0-7.49,3.36-7.49,7.49v4.31l-11.88-11.27v39.63c0,.43-.12.84-.33,1.19-.51.69-1.08.84-1.32.67-.3-.21-.13-.5-.13-.5h0c.24-.4.38-.86.38-1.36,0-1.48-1.2-2.68-2.68-2.68s-2.68,1.2-2.68,2.68h0c0,2.4,1.95,4.36,4.36,4.36s4.36-1.95,4.36-4.36v-28.13l11.88,11.56v-16.09c0-2.93,2.28-5.3,5.16-5.51v40.65c-1.19-.15-2.27-.66-3.08-1.47-.81-.97.41-1.46.41-1.46v-.02c.85-.45,1.43-1.33,1.43-2.36,0-1.48-1.2-2.68-2.68-2.68s-2.68,1.2-2.68,2.68c0,.02,0,.05,0,.07h0c0,3.99,3.25,7.24,7.24,7.24s7.24-3.25,7.24-7.24v-29.91c0-4.13-3.36-7.49-7.49-7.49ZM43.4,26.04v-1.53l9.93,9.58v1.62l-9.93-9.67ZM63.51,58.8c-.36.19-.73.34-1.13.44V18.93c.4.12.78.28,1.13.48v39.4Z"/>
  <path class="cls-1" d="M70.7,40.22c-.71,0-1.28.57-1.28,1.28s.57,1.28,1.28,1.28,1.28-.57,1.28-1.28-.57-1.28-1.28-1.28Z"/>
  <path class="cls-1" d="M70.7,35.2c-.71,0-1.28.57-1.28,1.28s.57,1.28,1.28,1.28,1.28-.57,1.28-1.28-.57-1.28-1.28-1.28Z"/>
  <path class="cls-1" d="M154.54,52l.19-.37s0,0,0,0l2.52-4.81c1.74-3.32,1.09-7.47-1.6-10.08l-5.23-5.1,5.48-5.23c1.72-1.64,2.24-4.03,1.36-6.23-.88-2.21-2.91-3.58-5.28-3.58h-4.8s-11.86,0-11.86,0c-.78,0-1.47-.38-1.91-.95,0,0,0,0,0,0-.82-1.31,1.19-.57,1.19-.57v-.02c.26.08.52.13.79.13,1.48,0,2.68-1.2,2.68-2.68s-1.2-2.68-2.68-2.68c-.03,0-.05,0-.08,0h0c-2.4,0-4.36,1.95-4.36,4.35s1.95,4.36,4.36,4.36h4.81s11.84,0,11.84,0c1.87,0,3.02,1.22,3.48,2.35.46,1.14.46,2.81-.89,4.1l-14.22,13.57v-17.24l-5.17,4.97c-1.72,1.66-2.71,3.97-2.71,6.36v28.73l5.5-5.29c1.51-1.46,2.38-3.49,2.38-5.59v-9.26l4.33-4.13,7.3,7.13c1.72,1.68,2.14,4.35,1.02,6.48l-.58,1.1h0s-6.04,11.52-6.04,11.52c-3.34,5.88-3.04,9.73-3.03,9.81,0,3.88,3.15,7.03,7.03,7.03s7.03-3.15,7.03-7.03h0c0-1.47-1.2-2.67-2.68-2.67s-2.68,1.2-2.68,2.68c0,.79.35,1.49.89,1.98,0,0-.02.02-.02.02,0,0,1.68,2.03-1.01,2.82h0c-.48.15-.98.26-1.51.26-2.8,0-5.08-2.28-5.09-5.16,0-.03-.23-3.47,2.8-8.79l6.44-12.28ZM134.43,32.66c0-1.33.41-2.63,1.13-3.74v26.82l-1.13,1.08v-24.16ZM153.35,42.85l-7.25-7.08.85-.81,7.87,7.87c.62.62.98,1.45,1.05,2.32-.1.26-.19.51-.32.76l-.22.41c-.33-1.29-.98-2.51-1.97-3.47Z"/>
  <circle class="cls-1" cx="130.19" cy="41.5" r="1.28"/>
  <path class="cls-1" d="M130.19,35.2c-.71,0-1.28.57-1.28,1.28s.57,1.28,1.28,1.28,1.28-.57,1.28-1.28-.57-1.28-1.28-1.28Z"/>
  <circle class="cls-1" cx="198.41" cy="41.5" r="1.28"/>
  <path class="cls-1" d="M198.41,37.77c.71,0,1.28-.57,1.28-1.28s-.57-1.28-1.28-1.28-1.28.57-1.28,1.28.57,1.28,1.28,1.28Z"/>
  <path class="cls-1" d="M190.23,17.92h0s-.03-.01-.03-.01c-1.51-.78-3.22-1.23-5.03-1.23-6.09,0-11.05,4.95-11.05,11.05v22.52c0,6.09,4.96,11.05,11.05,11.05,1.8,0,3.49-.44,4.99-1.2h.07v-.03c3.55-1.84,5.98-5.54,5.98-9.81v-22.52c0-4.27-2.44-7.97-5.98-9.81ZM176.19,50.25v-22.52c0-4.95,4.03-8.98,8.98-8.98.01,0,.02,0,.03,0v14.23c0,.65-.26,1.24-.69,1.68-.49.45-1.07.64-1.27.47-.18-.15-.01-.47.09-.62.01-.02.02-.03.03-.05.01-.02.03-.04.03-.04h0c.26-.42.41-.91.41-1.43,0-1.48-1.2-2.68-2.68-2.68s-2.68,1.2-2.68,2.68h0c0,2.4,1.95,4.36,4.36,4.36s4.36-1.95,4.36-4.36v-14c.39.09.77.2,1.14.34v39.34c-.97.36-2.02.57-3.12.57-4.95,0-8.98-4.03-8.98-8.98ZM190.23,20.33c.4.28.78.59,1.13.92v35.49c-.35.34-.73.65-1.13.92V20.33Z"/>
  <path class="cls-1" d="M112.04,40.22c-.71,0-1.28.57-1.28,1.28s.57,1.28,1.28,1.28,1.28-.57,1.28-1.28-.57-1.28-1.28-1.28Z"/>
  <path class="cls-1" d="M112.04,35.2c-.71,0-1.28.57-1.28,1.28s.57,1.28,1.28,1.28,1.28-.57,1.28-1.28-.57-1.28-1.28-1.28Z"/>
  <path class="cls-1" d="M103.85,17.92h0s-.03-.01-.03-.01c-1.51-.78-3.22-1.23-5.03-1.23-6.09,0-11.05,4.95-11.05,11.05v22.52c0,6.09,4.95,11.05,11.05,11.05,1.8,0,3.49-.44,4.99-1.2h.07v-.03c3.55-1.84,5.98-5.54,5.98-9.81v-22.52c0-4.27-2.44-7.97-5.98-9.81ZM89.81,50.25v-22.52c0-4.95,4.03-8.98,8.98-8.98.01,0,.02,0,.03,0v14.23c0,.65-.26,1.24-.69,1.68-.49.45-1.07.64-1.27.46-.18-.15-.01-.47.09-.62.01-.02.02-.03.03-.05.01-.02.03-.04.03-.04h0c.26-.42.41-.91.41-1.43,0-1.48-1.2-2.68-2.68-2.68s-2.68,1.2-2.68,2.68h0c0,2.4,1.95,4.36,4.36,4.36s4.36-1.95,4.36-4.36v-14c.39.09.77.2,1.14.34v39.34c-.97.36-2.02.57-3.12.57-4.95,0-8.98-4.03-8.98-8.98ZM103.85,20.33c.4.28.78.59,1.13.92v35.49c-.35.34-.73.65-1.13.92V20.33Z"/>
  <circle class="cls-1" cx="24.6" cy="41.5" r="1.28"/>
  <path class="cls-1" d="M24.6,35.2c-.71,0-1.28.57-1.28,1.28s.57,1.28,1.28,1.28,1.28-.57,1.28-1.28-.57-1.28-1.28-1.28Z"/>
  <path class="cls-1" d="M16.42,17.92h0s-.03-.01-.03-.01c-1.51-.78-3.22-1.23-5.03-1.23C5.26,16.68.31,21.64.31,27.73v22.52c0,6.09,4.96,11.05,11.05,11.05,1.8,0,3.49-.44,4.99-1.2h.07v-.03c3.55-1.84,5.98-5.54,5.98-9.81v-22.52c0-4.27-2.43-7.97-5.98-9.81ZM2.38,50.25v-22.52c0-4.95,4.03-8.98,8.98-8.98.01,0,.02,0,.03,0v14.23c0,.65-.26,1.24-.69,1.68-.49.45-1.07.64-1.27.46-.18-.15-.01-.47.09-.62.01-.02.02-.03.03-.05.01-.02.03-.04.03-.04h0c.26-.42.41-.91.41-1.43,0-1.48-1.2-2.68-2.68-2.68s-2.68,1.2-2.68,2.68h0c0,2.4,1.95,4.36,4.36,4.36s4.36-1.95,4.36-4.36v-14c.39.09.77.21,1.14.34v39.34c-.97.36-2.02.57-3.12.57-4.95,0-8.98-4.03-8.98-8.98ZM16.42,20.33c.4.28.78.59,1.13.92v35.49c-.35.34-.73.65-1.13.92V20.33Z"/>
</svg>